<?xml version="1.0" standalone="no"?>
<!DOCTYPE svg PUBLIC "-//W3C//DTD SVG 20010904//EN"
 "http://www.w3.org/TR/2001/REC-SVG-20010904/DTD/svg10.dtd">
<svg version="1.0" xmlns="http://www.w3.org/2000/svg"
 width="154.000000pt" height="154.000000pt" viewBox="0 0 154.000000 154.000000"
 preserveAspectRatio="xMidYMid meet">
<metadata>
Created by potrace 1.14, written by Peter Selinger 2001-2017
</metadata>
<g transform="translate(0.000000,154.000000) scale(0.100000,-0.100000)"
fill="#000000" stroke="none">
<path d="M85 1515 c-25 -24 -25 -27 -25 -194 l0 -170 715 0 715 0 0 168 c0
165 -1 169 -25 195 l-24 26 -666 0 -666 0 -24 -25z"/>
<path d="M60 935 l0 -135 715 0 715 0 0 135 0 135 -715 0 -715 0 0 -135z"/>
<path d="M64 711 c-2 -2 -4 -106 -4 -230 l1 -226 23 48 c43 87 103 134 196
153 149 30 289 -69 314 -222 l7 -40 174 0 174 0 7 42 c26 173 222 276 378 200
63 -31 100 -69 132 -133 l23 -48 1 230 0 231 -711 0 c-390 0 -712 -2 -715 -5z"/>
<path d="M255 361 c-133 -61 -149 -241 -28 -320 72 -47 158 -41 223 17 155
138 -7 390 -195 303z"/>
<path d="M1137 356 c-136 -72 -133 -256 5 -327 108 -56 247 20 262 143 19 144
-138 252 -267 184z"/>
</g>
</svg>
